<svg width="87" height="32" viewBox="0 0 87 32" fill="none" xmlns="http://www.w3.org/2000/svg">
<path d="M12 2.48205C13.8564 1.41025 16.1436 1.41025 18 2.48205L24.9904 6.51795C26.8468 7.58975 27.9904 9.57051 27.9904 11.7141V19.7859C27.9904 21.9295 26.8468 23.9103 24.9904 24.9821L18 29.0179C16.1436 30.0897 13.8564 30.0897 12 29.0179L5.00962 24.9821C3.15321 23.9103 2.00962 21.9295 2.00962 19.7859V11.7141C2.00962 9.57051 3.15321 7.58975 5.00962 6.51795L12 2.48205Z" fill="#121010"/>
<path fill-rule="evenodd" clip-rule="evenodd" d="M12.0021 2.48158C13.8585 1.40979 16.1457 1.40979 18.0021 2.48158L24.9925 6.51748C26.8489 7.58928 27.9925 9.57004 27.9925 11.7136V19.7854C27.9925 21.929 26.8489 23.9098 24.9925 24.9816L18.0021 29.0175C16.1457 30.0893 13.8585 30.0893 12.0021 29.0175L5.01172 24.9816C3.15531 23.9098 2.01172 21.929 2.01172 19.7854V11.7136C2.01172 9.57004 3.15531 7.58928 5.01172 6.51748L12.0021 2.48158ZM19.9523 8.51344C18.0551 8.5628 16.6191 9.59099 13.821 12.0618C12.3005 13.1554 11.5582 12.6419 10.2769 11.2871C11.5576 11.7477 12.2294 11.6007 13.3536 10.6912C16.9836 7.25432 18.1594 7.43835 19.9523 8.51344ZM20.0118 9.10729C18.9522 9.32406 18.1856 9.55743 17.6151 9.99045C17.044 10.424 16.6711 11.0561 16.3954 12.0664L16.3951 12.0673L16.395 12.0682C16.0823 14.2209 16.2506 15.376 16.794 17.3962C17.0958 18.8511 17.185 19.8517 16.9589 20.5656C16.7336 21.277 16.1939 21.7063 15.2279 22.0153L12.0508 22.6248L10.4955 23.7008L13.7242 23.3528C15.4307 23.0641 16.6211 22.6605 17.383 21.738C18.1465 20.8135 18.477 19.3711 18.4722 17.0117L18.4719 17.0091C18.0249 14.5394 17.8921 12.8812 18.1313 11.6851C18.37 10.4908 18.9798 9.75647 20.0224 9.13474L20.0171 9.12102L20.0118 9.10729ZM15.1345 11.8021L15.1541 11.7546L15.1121 11.7842C14.2598 12.3848 13.6692 12.9371 13.5029 13.9286C13.337 14.9181 13.594 16.3426 14.4265 18.6869C14.6135 19.3808 14.6721 19.893 14.5684 20.3534C14.4647 20.8138 14.1983 21.2244 13.7309 21.714L13.7468 21.7384C14.6217 21.4278 15.2553 21.154 15.6212 20.7273C15.9886 20.299 16.0842 19.7198 15.8925 18.8053L15.8923 18.8046L15.8921 18.8039C14.7708 15.2603 14.416 13.544 15.1345 11.8021Z" fill="white"/>
<path d="M44.5111 22.5953C41.7981 22.5953 39.8991 21.5019 38.8139 19.3151L41.7488 17.638C42.2914 18.7232 43.2122 19.2658 44.5111 19.2658C45.4154 19.2658 46.0895 19.052 46.5335 18.6245C46.9774 18.197 47.1994 17.6133 47.1994 16.8734V4.98575H50.5782V16.8734C50.5782 18.6821 50.011 20.0879 48.8765 21.0908C47.742 22.0938 46.2868 22.5953 44.5111 22.5953ZM63.8829 20.7209C62.6168 21.9705 61.0713 22.5953 59.2462 22.5953C57.4211 22.5953 55.8756 21.9705 54.6095 20.7209C53.3599 19.4548 52.7351 17.9093 52.7351 16.0842C52.7351 14.2591 53.3599 12.7218 54.6095 11.4722C55.8756 10.2061 57.4211 9.57311 59.2462 9.57311C61.0713 9.57311 62.6168 10.2061 63.8829 11.4722C65.1489 12.7218 65.7819 14.2591 65.7819 16.0842C65.7819 17.9093 65.1489 19.4548 63.8829 20.7209ZM56.8539 18.5259C57.4951 19.1671 58.2926 19.4877 59.2462 19.4877C60.1998 19.4877 60.9973 19.1671 61.6385 18.5259C62.2798 17.8846 62.6004 17.0707 62.6004 16.0842C62.6004 15.0977 62.2798 14.2838 61.6385 13.6425C60.9973 13.0013 60.1998 12.6807 59.2462 12.6807C58.2926 12.6807 57.4951 13.0013 56.8539 13.6425C56.2291 14.2838 55.9167 15.0977 55.9167 16.0842C55.9167 17.0707 56.2291 17.8846 56.8539 18.5259ZM69.5986 8.4386C69.0724 8.4386 68.6121 8.24952 68.2174 7.87135C67.8393 7.47674 67.6502 7.01636 67.6502 6.49021C67.6502 5.96406 67.8393 5.50368 68.2174 5.10907C68.6121 4.71446 69.0724 4.51715 69.5986 4.51715C70.1412 4.51715 70.6015 4.71446 70.9797 5.10907C71.3743 5.50368 71.5716 5.96406 71.5716 6.49021C71.5716 7.01636 71.3743 7.47674 70.9797 7.87135C70.6015 8.24952 70.1412 8.4386 69.5986 8.4386ZM68.0201 22.25V9.9184H71.2017V22.25H68.0201ZM80.9701 9.57311C82.3183 9.57311 83.4282 10.0253 84.2996 10.9296C85.1875 11.8339 85.6314 13.0835 85.6314 14.6784V22.25H82.4498V15.073C82.4498 14.2509 82.2279 13.6261 81.7839 13.1986C81.34 12.7547 80.7481 12.5327 80.0082 12.5327C79.1861 12.5327 78.5284 12.7875 78.0351 13.2973C77.5419 13.807 77.2952 14.5715 77.2952 15.5909V22.25H74.1137V9.9184H77.2952V11.2995C78.068 10.1486 79.293 9.57311 80.9701 9.57311Z" fill="white"/>
<rect x="44.0664" y="4.00586" width="9.17471" height="3.32953" fill="white"/>
</svg>
