<svg width="241" height="275" viewBox="0 0 241 275" fill="none" xmlns="http://www.w3.org/2000/svg">
<rect x="81.8932" y="92.2251" width="144.406" height="144.406" rx="24.9376" fill="black" fill-opacity="0.56"/>
<g clip-path="url(#clip0_650_8411)">
<g filter="url(#filter0_bi_650_8411)">
<rect x="35.5112" y="62.1949" width="157.165" height="157.165" rx="24.9376" fill="#2D2D2D"/>
</g>
<g filter="url(#filter1_f_650_8411)">
<circle cx="89.156" cy="67.1236" r="25.2276" fill="url(#paint0_linear_650_8411)"/>
</g>
<g filter="url(#filter2_bddi_650_8411)">
<path d="M108.079 96.1032C111.302 92.5425 116.895 92.5425 120.118 96.1032L151.227 130.471C154.816 134.436 152.002 140.778 146.654 140.778V140.778C143.247 140.778 140.486 143.54 140.486 146.946V168.905C140.486 173.39 136.851 177.025 132.367 177.025H95.5403C91.0561 177.025 87.4211 173.39 87.4211 168.905V146.857C87.4211 143.5 84.6995 140.778 81.3423 140.778V140.778C76.0712 140.778 73.2983 134.528 76.8356 130.62L108.079 96.1032Z" fill="url(#paint1_linear_650_8411)"/>
</g>
</g>
<g filter="url(#filter3_bif_650_8411)">
<path d="M27.4829 17.4048C29.0108 14.6821 32.7376 14.2153 34.8899 16.4769L51.5771 34.0122C54.2016 36.7701 52.5705 41.3409 48.7928 41.8141L20.2597 45.3886C16.482 45.8618 13.7738 41.8347 15.6369 38.5145L27.4829 17.4048Z" fill="url(#paint2_linear_650_8411)" fill-opacity="0.2"/>
</g>
<g clip-path="url(#clip1_650_8411)">
<g filter="url(#filter4_bif_650_8411)">
<path d="M227.981 259.212L237.089 268.317L234.08 271.326L224.975 262.219C221.587 264.935 217.372 266.412 213.03 266.406C202.466 266.406 193.892 257.832 193.892 247.268C193.892 236.703 202.466 228.13 213.03 228.13C223.594 228.13 232.168 236.703 232.168 247.268C232.175 251.61 230.697 255.824 227.981 259.212Z" fill="white"/>
<path d="M227.981 259.212L237.089 268.317L234.08 271.326L224.975 262.219C221.587 264.935 217.372 266.412 213.03 266.406C202.466 266.406 193.892 257.832 193.892 247.268C193.892 236.703 202.466 228.13 213.03 228.13C223.594 228.13 232.168 236.703 232.168 247.268C232.175 251.61 230.697 255.824 227.981 259.212Z" fill="url(#paint3_linear_650_8411)" fill-opacity="0.2"/>
</g>
</g>
<defs>
<filter id="filter0_bi_650_8411" x="30.9877" y="57.6714" width="166.212" height="166.212" filterUnits="userSpaceOnUse" color-interpolation-filters="sRGB">
<feFlood flood-opacity="0" result="BackgroundImageFix"/>
<feGaussianBlur in="BackgroundImageFix" stdDeviation="2.26178"/>
<feComposite in2="SourceAlpha" operator="in" result="effect1_backgroundBlur_650_8411"/>
<feBlend mode="normal" in="SourceGraphic" in2="effect1_backgroundBlur_650_8411" result="shape"/>
<feColorMatrix in="SourceAlpha" type="matrix" values="0 0 0 0 0 0 0 0 0 0 0 0 0 0 0 0 0 0 127 0" result="hardAlpha"/>
<feMorphology radius="0.579944" operator="erode" in="SourceAlpha" result="effect2_innerShadow_650_8411"/>
<feOffset dx="1.73983" dy="0.579944"/>
<feGaussianBlur stdDeviation="9.62706"/>
<feComposite in2="hardAlpha" operator="arithmetic" k2="-1" k3="1"/>
<feColorMatrix type="matrix" values="0 0 0 0 1 0 0 0 0 1 0 0 0 0 1 0 0 0 0.3 0"/>
<feBlend mode="normal" in2="shape" result="effect2_innerShadow_650_8411"/>
</filter>
<filter id="filter1_f_650_8411" x="-22.4831" y="-44.5156" width="223.278" height="223.278" filterUnits="userSpaceOnUse" color-interpolation-filters="sRGB">
<feFlood flood-opacity="0" result="BackgroundImageFix"/>
<feBlend mode="normal" in="SourceGraphic" in2="BackgroundImageFix" result="shape"/>
<feGaussianBlur stdDeviation="43.2058" result="effect1_foregroundBlur_650_8411"/>
</filter>
<filter id="filter2_bddi_650_8411" x="50.198" y="78.818" width="127.689" height="133.699" filterUnits="userSpaceOnUse" color-interpolation-filters="sRGB">
<feFlood flood-opacity="0" result="BackgroundImageFix"/>
<feGaussianBlur in="BackgroundImageFix" stdDeviation="2.26178"/>
<feComposite in2="SourceAlpha" operator="in" result="effect1_backgroundBlur_650_8411"/>
<feColorMatrix in="SourceAlpha" type="matrix" values="0 0 0 0 0 0 0 0 0 0 0 0 0 0 0 0 0 0 127 0" result="hardAlpha"/>
<feOffset dy="10.439"/>
<feGaussianBlur stdDeviation="12.5268"/>
<feComposite in2="hardAlpha" operator="out"/>
<feColorMatrix type="matrix" values="0 0 0 0 1 0 0 0 0 0.383333 0 0 0 0 0 0 0 0 0.23 0"/>
<feBlend mode="normal" in2="effect1_backgroundBlur_650_8411" result="effect2_dropShadow_650_8411"/>
<feColorMatrix in="SourceAlpha" type="matrix" values="0 0 0 0 0 0 0 0 0 0 0 0 0 0 0 0 0 0 127 0" result="hardAlpha"/>
<feOffset dy="8.69916"/>
<feGaussianBlur stdDeviation="4.75554"/>
<feComposite in2="hardAlpha" operator="out"/>
<feColorMatrix type="matrix" values="0 0 0 0 0 0 0 0 0 0 0 0 0 0 0 0 0 0 0.25 0"/>
<feBlend mode="normal" in2="effect2_dropShadow_650_8411" result="effect3_dropShadow_650_8411"/>
<feBlend mode="normal" in="SourceGraphic" in2="effect3_dropShadow_650_8411" result="shape"/>
<feColorMatrix in="SourceAlpha" type="matrix" values="0 0 0 0 0 0 0 0 0 0 0 0 0 0 0 0 0 0 127 0" result="hardAlpha"/>
<feOffset dx="1.73983" dy="0.579944"/>
<feGaussianBlur stdDeviation="9.62706"/>
<feComposite in2="hardAlpha" operator="arithmetic" k2="-1" k3="1"/>
<feColorMatrix type="matrix" values="0 0 0 0 1 0 0 0 0 1 0 0 0 0 1 0 0 0 0.3 0"/>
<feBlend mode="normal" in2="shape" result="effect4_innerShadow_650_8411"/>
</filter>
<filter id="filter3_bif_650_8411" x="0.535048" y="0.536688" width="66.8248" height="59.3885" filterUnits="userSpaceOnUse" color-interpolation-filters="sRGB">
<feFlood flood-opacity="0" result="BackgroundImageFix"/>
<feGaussianBlur in="BackgroundImageFix" stdDeviation="2.26178"/>
<feComposite in2="SourceAlpha" operator="in" result="effect1_backgroundBlur_650_8411"/>
<feBlend mode="normal" in="SourceGraphic" in2="effect1_backgroundBlur_650_8411" result="shape"/>
<feColorMatrix in="SourceAlpha" type="matrix" values="0 0 0 0 0 0 0 0 0 0 0 0 0 0 0 0 0 0 127 0" result="hardAlpha"/>
<feMorphology radius="0.579944" operator="erode" in="SourceAlpha" result="effect2_innerShadow_650_8411"/>
<feOffset dx="1.73983" dy="0.579944"/>
<feGaussianBlur stdDeviation="9.62706"/>
<feComposite in2="hardAlpha" operator="arithmetic" k2="-1" k3="1"/>
<feColorMatrix type="matrix" values="0 0 0 0 1 0 0 0 0 1 0 0 0 0 1 0 0 0 0.3 0"/>
<feBlend mode="normal" in2="shape" result="effect2_innerShadow_650_8411"/>
<feGaussianBlur stdDeviation="7.2493" result="effect3_foregroundBlur_650_8411"/>
</filter>
<filter id="filter4_bif_650_8411" x="189.369" y="223.606" width="52.244" height="52.244" filterUnits="userSpaceOnUse" color-interpolation-filters="sRGB">
<feFlood flood-opacity="0" result="BackgroundImageFix"/>
<feGaussianBlur in="BackgroundImageFix" stdDeviation="2.26178"/>
<feComposite in2="SourceAlpha" operator="in" result="effect1_backgroundBlur_650_8411"/>
<feBlend mode="normal" in="SourceGraphic" in2="effect1_backgroundBlur_650_8411" result="shape"/>
<feColorMatrix in="SourceAlpha" type="matrix" values="0 0 0 0 0 0 0 0 0 0 0 0 0 0 0 0 0 0 127 0" result="hardAlpha"/>
<feMorphology radius="0.579944" operator="erode" in="SourceAlpha" result="effect2_innerShadow_650_8411"/>
<feOffset dx="1.73983" dy="0.579944"/>
<feGaussianBlur stdDeviation="9.62706"/>
<feComposite in2="hardAlpha" operator="arithmetic" k2="-1" k3="1"/>
<feColorMatrix type="matrix" values="0 0 0 0 1 0 0 0 0 1 0 0 0 0 1 0 0 0 0.3 0"/>
<feBlend mode="normal" in2="shape" result="effect2_innerShadow_650_8411"/>
<feGaussianBlur stdDeviation="1.44986" result="effect3_foregroundBlur_650_8411"/>
</filter>
<linearGradient id="paint0_linear_650_8411" x1="66.0308" y1="51.987" x2="121.031" y2="59.626" gradientUnits="userSpaceOnUse">
<stop stop-color="#8AE6CF"/>
<stop offset="1" stop-color="#7C3AE7"/>
</linearGradient>
<linearGradient id="paint1_linear_650_8411" x1="71.5122" y1="106.967" x2="172.557" y2="121.858" gradientUnits="userSpaceOnUse">
<stop stop-color="#8AE6CF"/>
<stop offset="1" stop-color="#7C3AE7"/>
</linearGradient>
<linearGradient id="paint2_linear_650_8411" x1="-31.727" y1="-35.3386" x2="22.9955" y2="74.9454" gradientUnits="userSpaceOnUse">
<stop stop-color="#FFC3B1"/>
<stop offset="1" stop-color="white"/>
</linearGradient>
<linearGradient id="paint3_linear_650_8411" x1="171.109" y1="172.68" x2="220.384" y2="283.014" gradientUnits="userSpaceOnUse">
<stop stop-color="#8940FF"/>
<stop offset="1" stop-color="#8940FF"/>
</linearGradient>
<clipPath id="clip0_650_8411">
<rect x="35.5127" y="62.1943" width="157.165" height="157.165" rx="25.5175" fill="white"/>
</clipPath>
<clipPath id="clip1_650_8411">
<rect width="51.035" height="51.035" fill="white" transform="translate(189.637 223.875)"/>
</clipPath>
</defs>
</svg>
