<svg width="1440" height="2087" viewBox="0 0 1440 2087" fill="none" xmlns="http://www.w3.org/2000/svg">
<g opacity="0.08">
<path opacity="0.0526316" d="M382.146 1773.93C432.465 1795.36 560.003 1806.2 667.603 1678.12C802.104 1518.03 773.3 1316.12 876.14 1143.43C952.043 1015.97 1198.95 747.878 1432.25 751.905" stroke="white" stroke-width="0.5"/>
<path opacity="0.105263" d="M308.249 1710.76C356.052 1737.33 481.758 1761.45 602.157 1645.32C752.656 1500.16 745.115 1296.34 865.442 1135.35C954.252 1016.52 1227.83 775.709 1459.43 804.1" stroke="white" stroke-width="0.5"/>
<path opacity="0.157895" d="M240.597 1642.56C285.361 1673.98 407.857 1711.11 539.736 1608.2C704.584 1479.56 718.388 1276.08 854.885 1128.54C955.629 1019.65 1252.88 808.752 1480.25 861.197" stroke="white" stroke-width="0.5"/>
<path opacity="0.210526" d="M179.682 1570C220.915 1605.93 338.86 1655.66 480.773 1567.1C658.164 1456.4 693.163 1255.47 844.334 1123.01C955.908 1025.25 1273.57 846.577 1494.21 922.501" stroke="white" stroke-width="0.5"/>
<path opacity="0.263158" d="M125.924 1493.82C163.175 1533.87 275.276 1595.65 425.669 1522.41C613.66 1430.86 669.47 1234.69 833.657 1118.76C954.84 1033.19 1289.44 888.702 1500.94 987.274" stroke="white" stroke-width="0.5"/>
<path opacity="0.315789" d="M79.6627 1414.78C112.524 1458.5 217.554 1531.66 374.778 1474.54C571.309 1403.15 647.318 1213.89 822.724 1115.75C952.187 1043.32 1300.06 934.601 1500.09 1054.74" stroke="white" stroke-width="0.5"/>
<path opacity="0.368421" d="M41.1524 1333.69C69.2641 1380.6 166.071 1464.34 328.405 1423.97C531.322 1373.5 626.698 1193.23 811.401 1113.96C947.726 1055.46 1305.06 983.701 1491.44 1124.09" stroke="white" stroke-width="0.5"/>
<path opacity="0.421053" d="M10.5702 1251.36C33.6239 1300.95 121.147 1394.35 286.812 1371.17C493.892 1342.19 607.59 1172.87 799.566 1113.35C941.259 1069.42 1304.13 1035.4 1474.82 1194.5" stroke="white" stroke-width="0.5"/>
<path opacity="0.473684" d="M-12.0015 1168.62C5.7417 1220.36 83.0231 1322.39 250.203 1316.65C459.178 1309.48 589.952 1152.97 787.098 1113.84C932.607 1084.97 1297.05 1089.06 1450.17 1265.14" stroke="white" stroke-width="0.5"/>
<path opacity="0.526316" d="M-26.5624 1086.33C-14.3241 1139.63 51.8683 1249.19 218.732 1260.95C427.312 1275.66 573.729 1133.68 773.886 1115.38C921.616 1101.87 1283.63 1144.04 1417.51 1335.15" stroke="white" stroke-width="0.5"/>
<path opacity="0.578947" d="M-33.2037 1005.3C-26.6045 1059.6 27.7739 1175.47 192.494 1204.61C398.394 1241.05 558.85 1115.15 759.823 1117.86C908.156 1119.87 1263.78 1199.65 1376.95 1403.71" stroke="white" stroke-width="0.5"/>
<path opacity="0.631579" d="M-32.1007 926.375C-31.2128 981.061 10.7556 1101.98 171.527 1148.19C372.491 1205.94 545.227 1097.5 744.816 1121.21C892.127 1138.71 1237.47 1255.23 1328.68 1470" stroke="white" stroke-width="0.5"/>
<path opacity="0.684211" d="M-23.5158 850.34C-28.349 904.819 0.74974 1029.47 155.81 1092.22C349.636 1170.67 532.762 1080.88 728.778 1125.32C873.453 1158.12 1204.72 1310.1 1272.99 1533.23" stroke="white" stroke-width="0.5"/>
<path opacity="0.736842" d="M-7.79133 777.961C-18.2926 831.637 -2.3824 958.642 145.269 1037.26C329.833 1135.54 521.341 1065.38 711.638 1130.07C852.092 1177.82 1165.66 1363.59 1210.23 1592.63" stroke="white" stroke-width="0.5"/>
<path opacity="0.789474" d="M14.6508 709.97C-1.40362 762.253 1.1438 890.226 139.768 983.849C313.049 1100.88 510.841 1051.13 693.334 1135.35C828.027 1197.52 1120.46 1415.05 1140.84 1647.49" stroke="white" stroke-width="0.5"/>
<path opacity="0.842105" d="M43.3143 647.039C21.8828 697.358 11.0394 824.896 139.118 932.497C299.217 1067 501.125 1038.19 673.815 1141.03C801.272 1216.94 1069.36 1463.84 1065.34 1697.14" stroke="white" stroke-width="0.5"/>
<path opacity="0.894737" d="M77.6375 589.795C51.0636 637.598 26.9483 763.304 143.078 883.703C288.241 1034.2 492.054 1026.66 653.048 1146.99C771.873 1235.8 1012.69 1509.37 984.296 1740.98" stroke="white" stroke-width="0.5"/>
<path opacity="0.947368" d="M116.995 538.796C85.5696 583.56 48.4466 706.056 151.355 837.935C279.991 1002.78 483.476 1016.59 631.01 1153.08C739.901 1253.83 950.8 1551.08 898.355 1778.44" stroke="white" stroke-width="0.5"/>
<path d="M160.706 494.536C124.774 535.77 75.0497 653.715 163.61 795.627C274.309 973.019 475.237 1008.02 607.695 1159.19C705.459 1270.76 884.131 1588.43 808.207 1809.07" stroke="white" stroke-width="0.5"/>
</g>
</svg>
