<svg width="1403" height="1259" viewBox="0 0 1403 1259" fill="none" xmlns="http://www.w3.org/2000/svg">
<path d="M1403 575.166H1299.07C1288.03 575.166 1279.09 584.597 1279.09 596.23V1057.58C1279.09 1069.21 1270.14 1078.64 1259.1 1078.64H1030.77C1019.72 1078.64 1010.78 1069.21 1010.78 1057.58V945.943C1010.78 934.31 1019.72 924.88 1030.77 924.88H1078.23C1089.27 924.88 1098.22 915.45 1098.22 903.816V836.412V761.021C1098.22 749.388 1089.27 739.958 1078.23 739.958H913.099C902.061 739.958 893.113 749.388 893.113 761.021V853.263C893.113 864.897 884.166 874.327 873.128 874.327H721.486C710.448 874.327 701.5 883.757 701.5 895.391V1133.94C701.5 1145.57 692.552 1155 681.514 1155H388.723C377.685 1155 368.737 1145.57 368.737 1133.94V767.34C368.737 755.707 359.79 746.277 348.751 746.277H152.391C141.353 746.277 132.406 736.847 132.406 725.213V572.064C132.406 560.43 123.458 551 112.42 551H0" stroke="#4C4C4C" stroke-width="0.998576"/>
<g clip-path="url(#clip0_416_10978)">
<path d="M370 547H533.197C551.314 547 566 537.284 566 525.298V445.543V394" stroke="#4C4C4C" stroke-width="0.998576"/>
<path d="M1403 150.731H1299.15C1288.11 150.731 1279.18 159.672 1279.18 170.703V608.133C1279.18 619.163 1270.24 628.104 1259.2 628.104H1031.03C1019.99 628.104 1011.06 619.163 1011.06 608.133V502.284C1011.06 491.253 1019.99 482.312 1031.03 482.312H1078.46C1089.5 482.312 1098.43 473.371 1098.43 462.341V398.432V326.95C1098.43 315.92 1089.5 306.978 1078.46 306.978H913.447C902.417 306.978 893.475 315.92 893.475 326.95V414.409C893.475 425.439 884.534 434.381 873.504 434.381H721.97C710.94 434.381 701.999 443.322 701.999 454.352V680.529C701.999 691.56 693.057 700.501 682.027 700.501H389.444C378.414 700.501 369.473 691.56 369.473 680.529V332.941C369.473 321.911 360.532 312.97 349.501 312.97H153.281C142.251 312.97 133.31 304.028 133.31 292.998V147.789C133.31 136.759 124.369 127.818 113.338 127.818H0.998535" stroke="#4C4C4C" stroke-width="0.998576"/>
<path d="M701 612L701 245" stroke="#4C4C4C" stroke-width="0.998576"/>
<path d="M331.028 314.551H488.803C499.833 314.551 508.774 323.493 508.774 334.523V373.967C508.774 384.997 517.716 393.938 528.746 393.938H568.689" stroke="#4C4C4C" stroke-width="0.998576"/>
<path d="M481.313 314.551H488.803C499.833 314.551 508.774 323.493 508.774 334.523V353.995" stroke="url(#paint0_linear_416_10978)" stroke-width="1.99715" stroke-linecap="round"/>
<g opacity="0.6" filter="url(#filter0_f_416_10978)">
<path d="M481.313 314.551H488.803C499.833 314.551 508.774 323.493 508.774 334.523V353.995" stroke="url(#paint1_linear_416_10978)" stroke-width="1.99715" stroke-linecap="round"/>
</g>
<g opacity="0.6" filter="url(#filter1_f_416_10978)">
<path d="M545.722 700.501H597.148" stroke="url(#paint2_linear_416_10978)" stroke-width="1.99715" stroke-linecap="round"/>
</g>
<path d="M545.722 700.501H597.148" stroke="url(#paint3_linear_416_10978)" stroke-width="1.99715" stroke-linecap="round"/>
<path d="M701 303.567V277.604" stroke="url(#paint4_linear_416_10978)" stroke-width="1.99715" stroke-linecap="round"/>
<g opacity="0.6" filter="url(#filter2_f_416_10978)">
<path d="M701 303.567V277.604" stroke="url(#paint5_linear_416_10978)" stroke-width="1.99715" stroke-linecap="round"/>
</g>
<g opacity="0.5" filter="url(#filter3_f_416_10978)">
<path d="M701.999 556.207V576.178" stroke="url(#paint6_linear_416_10978)" stroke-width="1.99715" stroke-linecap="round"/>
</g>
<path d="M701.999 556.207V576.178" stroke="url(#paint7_linear_416_10978)" stroke-width="1.99715" stroke-linecap="round"/>
<path d="M66.8245 0.499512H-121.746C-129.236 0.499512 -135.307 6.57082 -135.307 14.0602V165.684C-135.307 173.173 -129.236 179.245 -121.746 179.245H66.8245C74.3139 179.245 80.3852 173.173 80.3852 165.684V14.0602C80.3852 6.57082 74.3139 0.499512 66.8245 0.499512Z" fill="#0C0C0C" fill-opacity="0.6"/>
<path d="M66.8245 0.499512H-121.746C-129.236 0.499512 -135.307 6.57082 -135.307 14.0602V165.684C-135.307 173.173 -129.236 179.245 -121.746 179.245H66.8245C74.3139 179.245 80.3852 173.173 80.3852 165.684V14.0602C80.3852 6.57082 74.3139 0.499512 66.8245 0.499512Z" stroke="#4C4C4C" stroke-width="0.998576"/>
<path d="M54.9219 11.9829H62.9105C66.2195 11.9829 68.9019 14.6654 68.9019 17.9744V25.963" stroke="#4C4C4C" stroke-width="0.998576"/>
<path d="M54.9219 167.761H62.9105C66.2195 167.761 68.9019 165.079 68.9019 161.769V153.781" stroke="#4C4C4C" stroke-width="0.998576"/>
<path d="M1538.72 65.4067H1350.15C1342.66 65.4067 1336.59 71.4781 1336.59 78.9674V230.591C1336.59 238.08 1342.66 244.152 1350.15 244.152H1538.72C1546.21 244.152 1552.29 238.08 1552.29 230.591V78.9674C1552.29 71.4781 1546.21 65.4067 1538.72 65.4067Z" fill="black" fill-opacity="0.3"/>
<path d="M1538.72 65.4067H1350.15C1342.66 65.4067 1336.59 71.4781 1336.59 78.9674V230.591C1336.59 238.08 1342.66 244.152 1350.15 244.152H1538.72C1546.21 244.152 1552.29 238.08 1552.29 230.591V78.9674C1552.29 71.4781 1546.21 65.4067 1538.72 65.4067Z" stroke="#4C4C4C" stroke-width="0.998576"/>
<path d="M1362.06 76.8901H1354.07C1350.76 76.8901 1348.08 79.5726 1348.08 82.8816V90.8702" stroke="#4C4C4C" stroke-width="0.998576"/>
<path d="M1362.06 232.668H1354.07C1350.76 232.668 1348.08 229.986 1348.08 226.677V218.688" stroke="#4C4C4C" stroke-width="0.998576"/>
<path d="M1011 547H865.289C849.113 547 836 539.824 836 530.972V472.067V434" stroke="#4C4C4C" stroke-width="0.998576"/>
<path d="M694.845 190.651C698.429 188.581 702.845 188.581 706.429 190.651L719.925 198.443C723.509 200.512 725.717 204.336 725.717 208.475V224.059C725.717 228.197 723.509 232.021 719.925 234.091L706.429 241.883C702.845 243.952 698.429 243.952 694.845 241.883L681.349 234.091C677.765 232.021 675.557 228.197 675.557 224.059V208.475C675.557 204.336 677.765 200.512 681.349 198.443L694.845 190.651Z" fill="white"/>
<path fill-rule="evenodd" clip-rule="evenodd" d="M694.845 190.65C698.429 188.58 702.845 188.58 706.429 190.65L719.925 198.442C723.509 200.511 725.717 204.335 725.717 208.474V224.058C725.717 228.196 723.509 232.02 719.925 234.09L706.429 241.882C702.845 243.951 698.429 243.951 694.845 241.882L681.349 234.09C677.765 232.02 675.557 228.196 675.557 224.058V208.474C675.557 204.335 677.765 200.511 681.349 198.442L694.845 190.65ZM710.195 202.299C706.532 202.394 703.759 204.379 698.357 209.149C695.421 211.261 693.988 210.269 691.515 207.654C693.987 208.543 695.284 208.259 697.455 206.503C704.463 199.868 706.733 200.223 710.195 202.299ZM710.309 203.442C708.264 203.86 706.784 204.311 705.682 205.147C704.58 205.984 703.86 207.205 703.327 209.155L703.327 209.157L703.327 209.158C702.723 213.315 703.048 215.545 704.097 219.445C704.68 222.254 704.852 224.186 704.415 225.564C703.98 226.938 702.938 227.766 701.073 228.363L694.939 229.54L691.937 231.617L698.17 230.945C701.465 230.388 703.763 229.609 705.234 227.828C706.708 226.043 707.346 223.258 707.337 218.703C707.337 218.701 707.337 218.7 707.336 218.698C706.473 213.929 706.217 210.728 706.679 208.419C707.14 206.113 708.317 204.695 710.33 203.495L710.32 203.468L710.309 203.442ZM700.893 208.645L700.931 208.553L700.85 208.61C699.204 209.77 698.064 210.836 697.743 212.75C697.423 214.661 697.919 217.411 699.526 221.937C699.887 223.277 700 224.266 699.8 225.154C699.6 226.043 699.086 226.836 698.183 227.781L698.214 227.828C699.903 227.229 701.126 226.7 701.833 225.876C702.542 225.049 702.726 223.931 702.356 222.166L702.356 222.164L702.356 222.163C700.191 215.321 699.506 212.008 700.893 208.645Z" fill="url(#paint8_linear_416_10978)"/>
</g>
<defs>
<filter id="filter0_f_416_10978" x="468.332" y="301.57" width="53.4238" height="65.4067" filterUnits="userSpaceOnUse" color-interpolation-filters="sRGB">
<feFlood flood-opacity="0" result="BackgroundImageFix"/>
<feBlend mode="normal" in="SourceGraphic" in2="BackgroundImageFix" result="shape"/>
<feGaussianBlur stdDeviation="5.99145" result="effect1_foregroundBlur_416_10978"/>
</filter>
<filter id="filter1_f_416_10978" x="532.74" y="687.519" width="77.3896" height="25.9629" filterUnits="userSpaceOnUse" color-interpolation-filters="sRGB">
<feFlood flood-opacity="0" result="BackgroundImageFix"/>
<feBlend mode="normal" in="SourceGraphic" in2="BackgroundImageFix" result="shape"/>
<feGaussianBlur stdDeviation="5.99145" result="effect1_foregroundBlur_416_10978"/>
</filter>
<filter id="filter2_f_416_10978" x="688.019" y="264.623" width="25.9629" height="51.9258" filterUnits="userSpaceOnUse" color-interpolation-filters="sRGB">
<feFlood flood-opacity="0" result="BackgroundImageFix"/>
<feBlend mode="normal" in="SourceGraphic" in2="BackgroundImageFix" result="shape"/>
<feGaussianBlur stdDeviation="5.99145" result="effect1_foregroundBlur_416_10978"/>
</filter>
<filter id="filter3_f_416_10978" x="689.017" y="543.225" width="25.9629" height="45.9343" filterUnits="userSpaceOnUse" color-interpolation-filters="sRGB">
<feFlood flood-opacity="0" result="BackgroundImageFix"/>
<feBlend mode="normal" in="SourceGraphic" in2="BackgroundImageFix" result="shape"/>
<feGaussianBlur stdDeviation="5.99145" result="effect1_foregroundBlur_416_10978"/>
</filter>
<linearGradient id="paint0_linear_416_10978" x1="510.374" y1="-158.774" x2="479.542" y2="-158.822" gradientUnits="userSpaceOnUse">
<stop stop-color="#8D77CC" stop-opacity="0"/>
<stop offset="0.254564" stop-color="#8D77CC"/>
<stop offset="0.507253" stop-color="#7BD5FB"/>
<stop offset="1" stop-color="#B2F79C"/>
</linearGradient>
<linearGradient id="paint1_linear_416_10978" x1="510.374" y1="-158.774" x2="479.542" y2="-158.822" gradientUnits="userSpaceOnUse">
<stop stop-color="#8D77CC" stop-opacity="0"/>
<stop offset="0.254564" stop-color="#8D77CC"/>
<stop offset="0.507253" stop-color="#7BD5FB"/>
<stop offset="1" stop-color="#B2F79C"/>
</linearGradient>
<linearGradient id="paint2_linear_416_10978" x1="-nan" y1="-nan" x2="-nan" y2="-nan" gradientUnits="userSpaceOnUse">
<stop stop-color="#8D77CC" stop-opacity="0"/>
<stop offset="0.254564" stop-color="#8D77CC"/>
<stop offset="0.507253" stop-color="#7BD5FB"/>
<stop offset="1" stop-color="#B2F79C"/>
</linearGradient>
<linearGradient id="paint3_linear_416_10978" x1="-nan" y1="-nan" x2="-nan" y2="-nan" gradientUnits="userSpaceOnUse">
<stop stop-color="#8D77CC" stop-opacity="0"/>
<stop offset="0.254564" stop-color="#8D77CC"/>
<stop offset="0.507253" stop-color="#7BD5FB"/>
<stop offset="1" stop-color="#B2F79C"/>
</linearGradient>
<linearGradient id="paint4_linear_416_10978" x1="-nan" y1="-nan" x2="-nan" y2="-nan" gradientUnits="userSpaceOnUse">
<stop stop-color="#8D77CC" stop-opacity="0"/>
<stop offset="0.229562" stop-color="#8D77CC"/>
<stop offset="0.507253" stop-color="#7BD5FB"/>
<stop offset="1" stop-color="#B2F79C"/>
</linearGradient>
<linearGradient id="paint5_linear_416_10978" x1="-nan" y1="-nan" x2="-nan" y2="-nan" gradientUnits="userSpaceOnUse">
<stop stop-color="#8D77CC" stop-opacity="0"/>
<stop offset="0.229562" stop-color="#8D77CC"/>
<stop offset="0.507253" stop-color="#7BD5FB"/>
<stop offset="1" stop-color="#B2F79C"/>
</linearGradient>
<linearGradient id="paint6_linear_416_10978" x1="-nan" y1="-nan" x2="-nan" y2="-nan" gradientUnits="userSpaceOnUse">
<stop stop-color="#8D77CC" stop-opacity="0"/>
<stop offset="0.254564" stop-color="#8D77CC"/>
<stop offset="0.507253" stop-color="#7BD5FB"/>
<stop offset="1" stop-color="#B2F79C"/>
</linearGradient>
<linearGradient id="paint7_linear_416_10978" x1="-nan" y1="-nan" x2="-nan" y2="-nan" gradientUnits="userSpaceOnUse">
<stop stop-color="#8D77CC" stop-opacity="0"/>
<stop offset="0.229562" stop-color="#8D77CC"/>
<stop offset="0.507253" stop-color="#7BD5FB"/>
<stop offset="1" stop-color="#B2F79C"/>
</linearGradient>
<linearGradient id="paint8_linear_416_10978" x1="677.647" y1="199.965" x2="732.479" y2="206.995" gradientUnits="userSpaceOnUse">
<stop stop-color="#8AE6CF"/>
<stop offset="1" stop-color="#7C3AE7"/>
</linearGradient>
<clipPath id="clip0_416_10978">
<rect width="1402" height="713.982" fill="white"/>
</clipPath>
</defs>
</svg>
