<svg width="66" height="66" viewBox="0 0 66 66" fill="none" xmlns="http://www.w3.org/2000/svg">
<g id="Group 4">
<path id="Polygon 2" d="M26.0443 4.20351C30.0734 1.87733 35.0374 1.87733 39.0665 4.20351L54.2382 12.9629C58.2673 15.2891 60.7493 19.588 60.7493 24.2404V41.7591C60.7493 46.4115 58.2673 50.7105 54.2382 53.0367L39.0665 61.796C35.0374 64.1222 30.0734 64.1222 26.0443 61.796L10.8727 53.0367C6.84362 50.7105 4.3616 46.4115 4.3616 41.7591V24.2404C4.3616 19.588 6.84361 15.2891 10.8727 12.9629L26.0443 4.20351Z" fill="#121010"/>
<path id="Subtract" fill-rule="evenodd" clip-rule="evenodd" d="M26.0441 4.20363C30.0731 1.87744 35.0372 1.87744 39.0662 4.20362L54.2379 12.963C58.267 15.2892 60.749 19.5881 60.749 24.2405V41.7592C60.749 46.4116 58.267 50.7106 54.2379 53.0368L39.0663 61.7961C35.0372 64.1223 30.0731 64.1223 26.0441 61.7961L10.8724 53.0368C6.84334 50.7106 4.36133 46.4116 4.36133 41.7592V24.2405C4.36133 19.5881 6.84334 15.2892 10.8724 12.963L26.0441 4.20363ZM43.2979 17.2947C39.1803 17.4019 36.0637 19.6334 29.9907 24.9959C26.6908 27.3695 25.0796 26.2549 22.2989 23.3146C25.0785 24.3142 26.5364 23.9951 28.9764 22.0211C36.8548 14.562 39.4066 14.9614 43.2979 17.2947ZM43.4268 18.5837C41.1271 19.0541 39.4633 19.5606 38.2252 20.5004C36.9856 21.4413 36.1764 22.8134 35.5779 25.0059L35.5773 25.0079L35.5771 25.0098C34.8985 29.682 35.2636 32.1889 36.4431 36.5737C37.098 39.7313 37.2917 41.903 36.801 43.4523C36.3119 44.9963 35.1408 45.9281 33.0441 46.5988L26.1486 47.9215L22.7731 50.257L29.7804 49.5016C33.4841 48.875 36.0678 47.999 37.7214 45.9968C39.3785 43.9903 40.0957 40.8597 40.0853 35.7391C40.0853 35.7373 40.0852 35.7362 40.0848 35.7333C39.1147 30.3732 38.8264 26.7743 39.3454 24.1784C39.8637 21.5863 41.1871 19.9926 43.4499 18.6432L43.4383 18.6134L43.4268 18.5837ZM32.8414 24.4323L32.8839 24.3292L32.7927 24.3935C30.943 25.6971 29.6612 26.8958 29.3003 29.0477C28.9401 31.1951 29.4979 34.287 31.3048 39.3749C31.7107 40.881 31.8377 41.9926 31.6127 42.9919C31.3876 43.9909 30.8096 44.8821 29.7951 45.9449L29.8295 45.9978C31.7284 45.3237 33.1035 44.7293 33.8978 43.8033C34.695 42.8738 34.9025 41.6166 34.4865 39.6319L34.4861 39.6304L34.4857 39.6288C32.0519 31.938 31.2821 28.213 32.8414 24.4323Z" fill="white"/>
</g>
</svg>
